<?xml version="1.0" encoding="UTF-8"?>
<svg width="107px" height="86px" viewBox="0 0 107 86" version="1.1" xmlns="http://www.w3.org/2000/svg" xmlns:xlink="http://www.w3.org/1999/xlink">
    <!-- Generator: Sketch 64 (93537) - https://sketch.com -->
    <title>Shape</title>
    <desc>Created with Sketch.</desc>
    <g id="Page-1" stroke="none" stroke-width="1" fill="none" fill-rule="evenodd">
        <g id="Artboard" transform="translate(-10.000000, -14.000000)" fill="#5A67D8" fill-rule="nonzero">
            <path d="M101.572,46.941 C89.52,46.941 78.788,56.335 68.468,72.713 L68.247,73.066 L67.859,72.911 C67.183,72.64 66.527,72.349 65.88,72.052 L65.28,71.775 L65.709,71.274 C74.508,60.957 79.761,48.29 79.761,37.391 C79.761,19.469 69.271,14.734 63.724,14.734 C52.944,14.734 46.761,22.992 46.761,37.391 C46.761,48.7458554 49.7665503,56.2606783 55.7011872,59.7642565 C56.0786174,59.9870766 56.871,60.235 57.5,59.5 C58.129,58.765 61.5,54.5 62,53 C62.5,51.5 62,51 60.925,49.133 C59.004,47.146 57.113,42.205 57.276,37.374 C57.528,29.797 59.878,25.451 63.723,25.451 C67.181,25.451 69.789,30.584 69.789,37.39 C69.789,44.897 64.03,56.662 56.099,65.365 L55.783,65.713 L55.417,65.42 C53.344,63.758 51.389,62.041 49.498,60.379 C42.184,53.953 35.275,47.881 23.79,47.404 C16.341,47.087 10,53.828 10,61.833 C10,70.093 22.301,85.89 41.586,85.89 C46.585,85.89 51.852,83.757 56.82,79.725 L57.085,79.509 L57.382,79.679 C59.049,80.626 60.79,81.49 62.555,82.24 L63.039,82.444 L62.81,82.918 C60.3968496,87.8924313 58.2959153,93.4272106 57,98 C56.7911791,98.736849 57.2003333,99.5 58,99.5 C59.7513581,99.5 64.2608065,99.5 67.5,99.5 C68.0737202,99.5 68.3308301,99.1503885 68.5,98.5 C69.5109299,94.6133916 71.2061726,89.7160099 72.988,85.778 L73.148,85.423 L73.533,85.493 C77.23,86.169 81.208,86.511 85.353,86.511 C104.572,86.511 116.334769,70.734 116.334769,62.142 C116.336,58.195 113.624,46.941 101.572,46.941 Z M46.974,73.009 C44.073,74.689 41.311,75.54 38.764,75.54 C29.518,75.54 20.864,66.839 20.864,62.886 C20.864,60.579 22.43,58.191 25.052,58.191 C31.802,58.191 36.795,62.807 42.576,68.151 C44.001,69.468 45.475,70.832 47.051,72.201 L47.58,72.66 L46.974,73.009 Z M85.035,76.009 C83.083,76.009 81.154,75.907 79.305,75.706 L78.491,75.618 L78.942,74.934 C86.057,64.116 94.132,57.911 101.1,57.911 C104.141,57.911 105.733,60.194 105.733,62.45 C105.732,68.025 93.546,76.009 85.035,76.009 Z" id="Shape"></path>
        </g>
    </g>
</svg>